<?xml version="1.0" standalone="no"?>
<!DOCTYPE svg PUBLIC "-//W3C//DTD SVG 20010904//EN"
 "http://www.w3.org/TR/2001/REC-SVG-20010904/DTD/svg10.dtd">
<svg version="1.0" xmlns="http://www.w3.org/2000/svg"
 width="500.000000pt" height="500.000000pt" viewBox="0 0 500.000000 500.000000"
 preserveAspectRatio="xMidYMid meet">
<metadata>
Created by potrace 1.14, written by Peter Selinger 2001-2017
</metadata>
<g transform="translate(0.000000,500.000000) scale(0.100000,-0.100000)"
fill="#000000" stroke="none">
<path d="M305 4968 c-3 -18 -35 -271 -70 -563 -36 -291 -90 -717 -120 -945
-30 -228 -68 -524 -85 -656 l-30 -241 0 -1282 0 -1281 2500 0 2500 0 0 256 c0
251 0 255 -20 249 -11 -4 -20 -2 -20 4 0 6 9 11 20 11 20 0 20 4 20 465 -1
282 -5 465 -11 465 -5 0 -9 -4 -9 -10 0 -5 -5 -10 -11 -10 -5 0 -7 5 -3 12 4
7 3 8 -5 4 -6 -4 -8 -12 -5 -18 5 -7 -2 -9 -19 -4 -17 4 -31 1 -41 -9 -16 -16
-31 -20 -22 -6 3 5 0 14 -8 20 -11 9 -15 7 -20 -11 -9 -35 -8 -38 17 -39 15
-1 17 -3 6 -6 -11 -3 -15 -11 -12 -24 5 -16 8 -17 21 -7 13 11 13 9 -1 -12
-16 -25 -8 -65 10 -46 4 5 3 11 -4 13 -10 4 -10 7 0 18 7 7 15 11 20 8 4 -2 7
2 7 9 1 8 6 6 15 -6 17 -23 20 -40 5 -31 -6 3 -13 0 -16 -8 -7 -19 -35 -18
-59 2 -15 12 -17 13 -8 1 17 -23 21 -106 4 -96 -8 5 -31 -35 -31 -56 0 -5 8
-7 18 -4 15 5 15 5 1 -7 -9 -7 -20 -27 -23 -45 -4 -17 -11 -32 -16 -32 -10 0
-15 37 -40 305 -11 116 -31 329 -45 475 -23 246 -51 537 -75 775 -17 174 -68
708 -100 1040 -28 297 -120 1332 -120 1348 0 4 -56 7 -125 7 l-125 0 0 -24 c0
-39 49 -706 65 -891 32 -365 86 -1091 82 -1110 -3 -11 -5 -6 -6 13 -1 22 -5
31 -13 26 -7 -5 -9 0 -6 14 4 13 0 23 -8 26 -8 3 -14 12 -14 21 0 8 -5 14 -12
12 -6 -1 -12 7 -13 18 -4 56 -5 60 -13 47 -7 -10 -13 -8 -30 6 -18 15 -21 28
-18 61 3 27 1 39 -7 34 -6 -4 -8 -1 -5 8 3 8 2 34 -3 59 -5 30 -7 10 -3 -61 4
-107 7 -149 24 -379 17 -234 22 -355 16 -349 -4 4 -13 69 -20 145 -19 192 -19
86 -1 -149 20 -269 52 -717 75 -1077 11 -168 22 -330 24 -361 l5 -56 -132 3
c-164 3 -187 0 -187 -30 0 -18 -6 -23 -27 -24 -133 -5 -180 -9 -191 -16 -17
-10 -52 12 -52 34 0 29 -37 45 -66 29 -19 -10 -32 -10 -61 -1 -24 8 -41 8 -47
2 -14 -14 -59 -13 -73 1 -9 9 -19 9 -42 -1 -16 -6 -34 -9 -40 -6 -6 4 -22 4
-36 0 -19 -5 -25 -12 -25 -35 0 -16 -6 -30 -12 -30 -7 -1 -17 -2 -23 -4 -5 -1
-16 -3 -22 -3 -7 -1 -13 -13 -13 -27 0 -25 -14 -33 -25 -15 -3 6 -21 10 -39
10 -18 0 -45 9 -59 20 -19 15 -27 17 -31 8 -4 -7 -4 15 -1 48 4 54 1 67 -20
98 -27 39 -32 75 -14 93 8 8 6 36 -10 103 -12 50 -21 94 -21 96 0 3 36 -25 79
-61 50 -41 88 -65 103 -65 24 0 90 41 115 71 15 18 71 151 85 200 10 38 0 146
-23 229 -58 217 -78 305 -84 368 -13 149 -66 299 -126 357 -22 22 -45 46 -52
53 -7 7 -20 22 -29 33 -10 10 -29 19 -43 19 -30 0 -195 72 -252 110 -117 79
-130 99 -119 183 11 84 48 187 67 187 25 0 40 24 59 94 15 56 15 67 3 91 -10
19 -20 25 -34 22 -24 -6 -24 5 1 76 19 55 20 59 3 125 -12 50 -25 75 -50 99
-18 17 -33 36 -33 42 0 6 -12 13 -27 17 -16 3 -39 10 -53 16 -55 25 -142 27
-218 5 -162 -45 -221 -157 -188 -354 8 -50 7 -53 -13 -53 -34 0 -36 -40 -6
-120 15 -38 32 -73 39 -77 6 -5 24 -38 40 -75 33 -80 30 -112 -20 -164 -28
-31 -39 -36 -63 -31 -19 4 -33 1 -40 -7 -7 -8 -40 -24 -74 -37 -34 -12 -87
-34 -117 -49 -30 -15 -92 -42 -138 -60 -100 -39 -139 -79 -205 -208 -49 -95
-67 -149 -123 -352 -81 -299 -119 -499 -129 -681 -6 -123 0 -174 41 -312 5
-16 -2 -18 -98 -15 l-103 3 -3 -25 c-6 -47 -11 -55 -26 -35 -10 14 -20 16 -49
11 -23 -4 -37 -13 -37 -21 0 -8 -1 -15 -2 -15 -2 0 -27 -3 -56 -6 -51 -6 -55
-5 -79 25 -28 34 -50 40 -59 16 -8 -20 -87 -20 -103 -1 -20 24 -80 30 -102 10
-10 -9 -19 -12 -19 -7 0 15 -51 26 -63 14 -8 -8 -3 -11 15 -11 28 0 45 -15 29
-25 -5 -3 -28 -3 -50 1 -31 5 -41 12 -45 30 -4 13 -11 24 -17 24 -6 0 -8 -4
-4 -9 3 -5 1 -12 -4 -16 -5 -3 -14 3 -20 12 -10 17 -11 15 -15 -19 0 -7 -11
-13 -23 -12 -109 3 -103 1 -103 42 0 20 13 165 30 322 50 487 58 567 85 845
15 149 42 410 60 580 19 171 46 429 60 575 14 146 32 321 40 390 8 69 21 193
30 275 8 83 21 213 29 290 37 337 55 516 61 593 l7 82 -226 0 -225 0 -6 -32z
m3960 -1918 c3 -6 -1 -7 -9 -4 -18 7 -21 14 -7 14 6 0 13 -4 16 -10z m15 -40
c0 -5 -2 -10 -4 -10 -3 0 -8 5 -11 10 -3 6 -1 10 4 10 6 0 11 -4 11 -10z m47
-112 c-3 -7 -5 -2 -5 12 0 14 2 19 5 13 2 -7 2 -19 0 -25z m10 -125 c-3 -10
-5 -2 -5 17 0 19 2 27 5 18 2 -10 2 -26 0 -35z m10 -105 c-3 -7 -5 -2 -5 12 0
14 2 19 5 13 2 -7 2 -19 0 -25z m-2507 -1006 c7 -98 6 -137 -6 -194 -8 -39
-13 -77 -10 -84 5 -14 -18 -219 -28 -246 -3 -10 -8 -26 -11 -35 -4 -12 -8 -14
-17 -5 -7 7 -22 12 -34 12 -18 0 -23 10 -36 63 -27 108 -39 206 -28 227 5 10
10 33 10 49 0 17 4 39 10 49 5 9 20 58 34 107 37 138 62 216 83 260 l18 40 3
-60 c1 -33 6 -115 12 -183z m3131 -365 c-10 -9 -11 -8 -5 6 3 10 9 15 12 12 3
-3 0 -11 -7 -18z m-1281 -331 c0 -2 -7 -6 -15 -10 -8 -3 -15 -1 -15 4 0 6 7
10 15 10 8 0 15 -2 15 -4z m-2191 -199 c1 -5 -3 -5 -9 -2 -5 3 -10 16 -9 28 0
21 1 21 9 2 5 -11 9 -24 9 -28z m-265 -12 c-4 -8 -8 -15 -10 -15 -2 0 -4 7 -4
15 0 8 4 15 10 15 5 0 7 -7 4 -15z m306 -75 c0 -5 -5 -10 -11 -10 -5 0 -7 5
-4 10 3 6 8 10 11 10 2 0 4 -4 4 -10z m-70 -150 c11 -11 20 -23 20 -27 0 -5
-62 -7 -137 -5 -120 2 -195 -4 -291 -24 -14 -3 -21 -1 -18 5 3 5 39 15 79 22
70 12 71 12 40 23 -17 6 -35 14 -39 19 -4 4 68 7 159 7 154 0 169 -2 187 -20z
m-983 -16 c-3 -3 -12 -4 -19 -1 -8 3 -5 6 6 6 11 1 17 -2 13 -5z m408 -15 c38
-5 73 -15 77 -22 4 -6 6 -12 5 -13 -2 -2 -268 22 -382 35 -74 9 -71 9 45 5 81
-2 116 0 100 6 -29 10 39 5 155 -11z m688 -26 c-7 -2 -21 -2 -30 0 -10 3 -4 5
12 5 17 0 24 -2 18 -5z m-258 -13 c-3 -5 -13 -10 -21 -10 -8 0 -12 5 -9 10 3
6 13 10 21 10 8 0 12 -4 9 -10z m55 -5 c10 -13 9 -15 -11 -14 -13 0 -18 3 -10
6 11 5 11 7 0 14 -8 5 -9 9 -3 9 6 0 17 -7 24 -15z m108 8 c-10 -2 -18 -9 -18
-14 0 -12 -57 -12 -65 0 -3 5 5 12 17 14 31 6 88 6 66 0z m67 -22 c10 -17 -12
-21 -25 -6 -10 12 -10 15 3 15 9 0 18 -4 22 -9z m-1278 -298 c-3 -10 -5 -2 -5
17 0 19 2 27 5 18 2 -10 2 -26 0 -35z m2900 -75 c-2 -13 -4 -5 -4 17 -1 22 1
32 4 23 2 -10 2 -28 0 -40z m-2895 20 c-5 -7 -12 -22 -15 -33 -4 -16 -5 -15
-6 6 -1 27 6 39 22 39 6 0 5 -5 -1 -12z"/>
<path d="M4062 4755 c0 -16 2 -22 5 -12 2 9 2 23 0 30 -3 6 -5 -1 -5 -18z"/>
<path d="M1686 4746 c-37 -19 -63 -24 -114 -23 -50 0 -78 -5 -108 -21 -44 -22
-98 -78 -108 -110 -4 -11 -19 -23 -34 -27 -41 -10 -90 -52 -112 -95 -54 -105
7 -240 122 -271 l41 -11 -72 -72 c-64 -65 -71 -75 -71 -111 0 -29 -5 -44 -20
-53 -22 -14 -27 -61 -8 -80 21 -21 66 -14 84 14 16 24 16 26 -5 54 -38 53 -30
77 62 168 82 82 83 82 135 82 48 0 52 -2 52 -23 0 -14 -19 -41 -50 -72 -44
-43 -50 -54 -50 -90 0 -29 -5 -44 -20 -53 -22 -14 -27 -61 -8 -80 21 -21 66
-14 84 14 16 24 16 26 -5 54 -35 48 -28 79 29 135 40 39 50 56 50 82 0 31 2
33 35 33 l35 0 0 -114 c0 -89 -3 -116 -15 -126 -18 -15 -20 -61 -3 -78 7 -7
24 -12 38 -12 14 0 31 5 38 12 17 17 15 63 -3 78 -12 10 -15 37 -15 126 l0
114 35 0 c33 0 35 -2 35 -33 0 -26 10 -43 50 -82 56 -55 66 -97 30 -130 -11
-10 -20 -26 -20 -35 0 -44 79 -68 100 -31 15 29 12 49 -10 68 -14 12 -20 30
-20 58 0 36 -6 47 -50 90 -30 29 -50 58 -50 71 0 19 7 23 48 26 l47 5 88 -86
c72 -71 87 -91 87 -116 0 -18 -8 -38 -20 -48 -24 -20 -26 -50 -4 -71 18 -19
65 -21 82 -4 18 18 14 56 -8 75 -14 12 -20 30 -20 58 0 37 -6 47 -80 120 l-79
79 48 27 c204 117 197 409 -11 513 -73 36 -193 37 -262 2z m239 -30 c133 -62
190 -219 125 -346 -21 -41 -99 -115 -130 -123 -18 -5 -20 0 -20 54 0 37 6 69
16 84 22 33 4 65 -36 65 -40 0 -58 -32 -36 -65 11 -16 16 -47 16 -90 l0 -65
-45 0 c-37 0 -45 3 -45 19 0 10 7 24 15 31 32 26 12 80 -30 80 -42 0 -62 -54
-30 -80 8 -7 15 -21 15 -31 0 -15 -7 -19 -35 -19 l-35 0 0 124 c0 98 3 126 15
136 19 16 19 35 -1 54 -22 22 -61 20 -74 -4 -12 -22 -5 -60 11 -60 5 0 9 -54
9 -125 l0 -125 -35 0 c-31 0 -35 3 -35 25 0 14 4 25 9 25 16 0 23 38 11 60
-11 20 -35 25 -64 14 -20 -8 -21 -57 -1 -74 8 -7 15 -21 15 -31 0 -16 -8 -19
-45 -19 l-45 0 0 65 c0 43 5 74 16 90 22 33 4 65 -37 65 -40 0 -61 -40 -36
-68 12 -13 17 -37 17 -85 l0 -67 -33 0 c-49 0 -99 32 -124 80 -28 53 -29 91
-3 145 20 40 79 85 113 85 8 0 29 24 45 54 41 72 97 101 182 93 50 -4 66 -1
115 24 75 38 157 40 230 5z m-265 -201 c0 -8 -4 -15 -10 -15 -5 0 -10 7 -10
15 0 8 5 15 10 15 6 0 10 -7 10 -15z m-230 -104 c0 -6 -4 -13 -10 -16 -5 -3
-10 1 -10 9 0 9 5 16 10 16 6 0 10 -4 10 -9z m460 -6 c0 -8 -4 -15 -10 -15 -5
0 -10 7 -10 15 0 8 5 15 10 15 6 0 10 -7 10 -15z m-338 -90 c0 -5 -5 -11 -11
-13 -6 -2 -11 4 -11 13 0 9 5 15 11 13 6 -2 11 -8 11 -13z m218 7 c0 -13 -12
-22 -22 -16 -10 6 -1 24 13 24 5 0 9 -4 9 -8z m-510 -412 c0 -21 -24 -28 -35
-10 -8 14 3 30 21 30 8 0 14 -9 14 -20z m200 0 c0 -21 -24 -28 -35 -10 -8 14
3 30 21 30 8 0 14 -9 14 -20z m210 0 c0 -13 -7 -20 -20 -20 -13 0 -20 7 -20
20 0 13 7 20 20 20 13 0 20 -7 20 -20z m205 0 c0 -8 -8 -16 -17 -18 -13 -2
-18 3 -18 18 0 15 5 20 18 18 9 -2 17 -10 17 -18z m200 0 c0 -8 -8 -16 -17
-18 -13 -2 -18 3 -18 18 0 15 5 20 18 18 9 -2 17 -10 17 -18z"/>
<path d="M1805 4709 c-11 -16 4 -26 45 -32 23 -3 59 -17 80 -32 44 -30 73 -26
43 7 -36 41 -154 81 -168 57z"/>
<path d="M1990 4596 c0 -9 7 -16 16 -16 9 0 14 5 12 12 -6 18 -28 21 -28 4z"/>
<path d="M3664 4486 c-23 -7 -51 -20 -64 -29 -16 -11 -37 -14 -80 -10 -85 8
-159 -29 -205 -102 -22 -33 -43 -55 -59 -59 -36 -9 -96 -65 -112 -103 -35 -83
-2 -186 74 -234 25 -16 56 -29 69 -29 13 0 23 -3 23 -8 0 -4 -31 -39 -70 -77
-61 -61 -70 -74 -70 -106 0 -23 -7 -42 -20 -54 -38 -34 -13 -95 38 -95 32 0
58 44 44 75 -7 14 -16 25 -22 25 -5 0 -10 15 -10 33 0 28 13 46 88 120 87 87
89 88 133 85 38 -3 44 -6 47 -28 2 -19 -10 -37 -48 -75 -42 -41 -50 -55 -50
-86 0 -23 -7 -42 -20 -54 -24 -22 -26 -58 -4 -79 40 -41 109 7 86 59 -7 14
-16 25 -22 25 -5 0 -10 14 -10 32 0 24 12 43 50 84 41 43 50 59 50 88 0 34 2
36 35 36 l35 0 0 -116 c0 -89 -3 -119 -15 -130 -25 -25 -19 -73 10 -86 41 -18
75 3 75 47 0 22 -6 38 -15 41 -12 5 -15 29 -15 125 l0 119 35 0 c33 0 35 -2
35 -33 0 -26 10 -43 50 -82 43 -42 50 -55 50 -87 0 -21 -5 -38 -10 -38 -6 0
-15 -11 -22 -25 -23 -52 46 -100 86 -59 22 21 20 57 -4 79 -13 12 -20 31 -20
54 0 31 -8 45 -50 86 -38 38 -50 56 -48 75 3 22 8 25 52 28 l49 3 84 -83 c75
-74 83 -86 83 -120 0 -21 -5 -38 -10 -38 -6 0 -15 -11 -22 -25 -23 -52 46
-100 86 -59 22 21 20 57 -4 79 -13 12 -20 31 -20 54 0 31 -10 46 -81 117 l-81
81 55 31 c94 53 146 143 147 252 0 196 -195 336 -386 276z m216 -51 c82 -42
140 -136 140 -231 0 -40 -23 -106 -51 -146 -25 -34 -95 -88 -116 -88 -20 0
-17 101 4 138 17 29 17 31 -1 51 -25 28 -52 26 -72 -4 -15 -23 -15 -27 0 -50
11 -16 16 -46 16 -90 l0 -65 -45 0 c-37 0 -45 3 -45 19 0 10 7 24 15 31 25 21
19 69 -10 82 -21 9 -28 8 -45 -7 -24 -21 -26 -48 -5 -65 8 -7 15 -23 15 -36 0
-21 -5 -24 -35 -24 l-35 0 0 122 c0 97 3 125 16 139 19 21 11 54 -16 69 -42
22 -82 -25 -56 -65 12 -19 16 -52 16 -145 l0 -120 -35 0 c-29 0 -35 4 -35 22
0 12 7 29 16 39 35 39 -9 94 -56 69 -24 -13 -28 -68 -5 -76 8 -4 15 -17 15
-30 0 -22 -4 -24 -45 -24 l-45 0 0 64 c0 43 6 75 17 94 17 29 17 31 -1 51 -11
12 -27 21 -36 21 -9 0 -25 -9 -36 -21 -18 -20 -18 -22 -1 -51 11 -19 17 -51
17 -94 0 -62 -1 -64 -25 -64 -66 0 -137 65 -151 137 -13 69 43 153 115 173 30
8 40 18 55 51 34 76 131 122 209 101 28 -8 40 -7 59 6 78 56 189 62 278 17z
m-280 -195 c0 -5 -4 -10 -10 -10 -5 0 -10 5 -10 10 0 6 5 10 10 10 6 0 10 -4
10 -10z m-234 -117 c-10 -10 -19 5 -10 18 6 11 8 11 12 0 2 -7 1 -15 -2 -18z
m460 0 c-10 -10 -19 5 -10 18 6 11 8 11 12 0 2 -7 1 -15 -2 -18z m-326 -83 c0
-5 -7 -10 -15 -10 -8 0 -15 5 -15 10 0 6 7 10 15 10 8 0 15 -4 15 -10z m210 0
c0 -5 -4 -10 -10 -10 -5 0 -10 5 -10 10 0 6 5 10 10 10 6 0 10 -4 10 -10z
m-510 -405 c0 -19 -20 -29 -32 -17 -8 8 -7 16 2 26 14 17 30 12 30 -9z m200 0
c0 -19 -20 -29 -32 -17 -8 8 -7 16 2 26 14 17 30 12 30 -9z m620 0 c0 -19 -20
-29 -32 -17 -15 15 -2 43 17 36 8 -3 15 -12 15 -19z m-412 -2 c-2 -10 -10 -18
-18 -18 -8 0 -16 8 -18 18 -2 12 3 17 18 17 15 0 20 -5 18 -17z m210 0 c-2
-10 -10 -18 -18 -18 -8 0 -16 8 -18 18 -2 12 3 17 18 17 15 0 20 -5 18 -17z"/>
<path d="M3740 4426 c0 -9 19 -18 52 -25 29 -7 67 -23 86 -37 24 -19 37 -23
44 -16 16 16 -8 41 -67 68 -57 27 -115 32 -115 10z"/>
<path d="M3930 4315 c0 -8 7 -15 15 -15 8 0 15 7 15 15 0 8 -7 15 -15 15 -8 0
-15 -7 -15 -15z"/>
<path d="M4101 4124 c0 -11 3 -14 6 -6 3 7 2 16 -1 19 -3 4 -6 -2 -5 -13z"/>
<path d="M4113 3990 c0 -25 2 -35 4 -22 2 12 2 32 0 45 -2 12 -4 2 -4 -23z"/>
<path d="M1270 3411 c-14 -4 -41 -16 -60 -26 -25 -14 -52 -18 -96 -16 -96 4
-183 -45 -214 -119 -8 -19 -25 -33 -55 -45 -72 -27 -125 -104 -125 -183 0 -31
27 -92 53 -120 28 -30 89 -62 119 -62 19 0 10 -13 -55 -78 -72 -72 -77 -80
-77 -120 0 -23 -5 -42 -10 -42 -6 0 -15 -11 -22 -25 -23 -52 46 -100 86 -59
22 21 20 57 -4 79 -38 35 -26 63 67 157 86 86 89 88 135 88 46 0 48 -1 48 -28
0 -20 -14 -41 -50 -77 -45 -44 -50 -54 -50 -92 0 -24 -5 -43 -10 -43 -6 0 -15
-11 -22 -25 -23 -52 46 -100 86 -59 22 21 20 57 -4 79 -34 31 -25 65 29 120
39 37 51 56 53 84 3 34 5 36 41 39 l37 3 0 -114 c0 -101 -2 -116 -20 -132 -25
-23 -26 -57 -2 -78 24 -22 55 -21 75 1 23 25 21 55 -3 77 -18 16 -20 31 -20
132 l0 114 38 -3 c35 -3 37 -5 40 -39 2 -28 14 -47 53 -84 54 -54 63 -89 29
-118 -37 -31 -16 -97 31 -97 23 0 59 34 59 55 0 8 -9 24 -20 35 -13 13 -20 33
-20 58 0 32 -7 45 -50 87 -36 36 -50 57 -50 77 0 27 2 28 48 28 46 0 50 -2
130 -83 69 -70 82 -87 82 -115 0 -19 -7 -40 -15 -48 -32 -32 -8 -94 36 -94 30
0 61 37 54 63 -4 12 -13 27 -21 33 -8 6 -14 29 -14 50 0 36 -7 47 -80 119 -44
44 -80 82 -80 85 0 3 18 14 41 24 22 11 56 37 76 59 131 145 90 370 -84 457
-51 26 -164 37 -213 21z m174 -41 c61 -23 125 -85 151 -146 17 -42 20 -122 5
-175 -17 -60 -116 -159 -160 -159 -17 0 -13 115 5 130 32 26 12 80 -30 80 -42
0 -62 -54 -30 -80 11 -9 15 -32 15 -81 l0 -69 -45 0 c-41 0 -45 2 -45 24 0 13
7 29 15 36 20 16 19 39 -2 62 -21 24 -48 23 -66 -3 -16 -22 -12 -52 9 -70 8
-6 14 -20 14 -30 0 -15 -8 -19 -40 -19 l-40 0 0 125 c0 71 4 125 9 125 14 0
23 37 16 59 -14 44 -85 32 -85 -14 0 -13 7 -30 15 -39 12 -11 15 -41 15 -135
l0 -121 -40 0 c-36 0 -40 3 -40 24 0 13 7 26 15 30 19 7 20 60 0 76 -41 34
-97 -29 -61 -69 9 -10 16 -27 16 -39 0 -19 -5 -22 -45 -22 l-45 0 0 69 c0 49
4 72 15 81 32 26 12 80 -30 80 -42 0 -62 -54 -30 -80 11 -9 15 -32 15 -83 l0
-70 -42 6 c-77 10 -138 78 -138 154 0 72 46 136 111 153 30 8 42 19 58 53 36
75 113 114 202 102 33 -5 54 -3 64 5 26 22 110 49 152 50 23 0 67 -9 97 -20z
m-244 -210 c0 -5 -7 -10 -15 -10 -8 0 -15 5 -15 10 0 6 7 10 15 10 8 0 15 -4
15 -10z m-239 -113 c-13 -13 -26 -3 -16 12 3 6 11 8 17 5 6 -4 6 -10 -1 -17z
m469 2 c0 -5 -7 -9 -15 -9 -15 0 -20 12 -9 23 8 8 24 -1 24 -14z m-340 -89 c0
-5 -4 -10 -10 -10 -5 0 -10 5 -10 10 0 6 5 10 10 10 6 0 10 -4 10 -10z m215 0
c-3 -5 -10 -10 -16 -10 -5 0 -9 5 -9 10 0 6 7 10 16 10 8 0 12 -4 9 -10z
m-508 -396 c7 -18 -17 -38 -31 -24 -11 11 -1 40 14 40 6 0 13 -7 17 -16z m200
0 c7 -18 -17 -38 -31 -24 -11 11 -1 40 14 40 6 0 13 -7 17 -16z m202 -20 c-9
-11 -15 -12 -25 -3 -11 9 -12 15 -3 25 9 11 15 12 25 3 11 -9 12 -15 3 -25z
m208 2 c-4 -9 -13 -13 -22 -10 -18 7 -20 31 -2 37 17 6 31 -9 24 -27z m200 0
c-4 -9 -13 -13 -22 -10 -18 7 -20 31 -2 37 17 6 31 -9 24 -27z"/>
<path d="M1335 3351 c-7 -12 1 -17 45 -26 19 -4 54 -18 77 -31 47 -27 63 -30
63 -11 0 39 -165 100 -185 68z"/>
<path d="M1522 3238 c6 -18 28 -21 28 -4 0 9 -7 16 -16 16 -9 0 -14 -5 -12
-12z"/>
<path d="M4141 3124 c0 -11 3 -14 6 -6 3 7 2 16 -1 19 -3 4 -6 -2 -5 -13z"/>
<path d="M4157 2945 c3 -60 7 -112 9 -114 7 -7 2 100 -6 164 -6 43 -7 28 -3
-50z"/>
<path d="M3754 2941 c-23 -10 -64 -19 -92 -19 -60 0 -115 -29 -137 -72 -8 -15
-31 -36 -52 -47 -55 -29 -78 -65 -78 -123 0 -60 25 -97 83 -125 l42 -21 -50
-49 c-35 -35 -50 -57 -50 -76 0 -15 -7 -32 -15 -39 -34 -28 6 -87 43 -64 22
15 27 41 10 61 -22 26 -9 55 50 116 49 49 61 57 94 57 50 0 50 -20 -2 -71 -29
-29 -40 -48 -40 -69 0 -17 -4 -30 -9 -30 -15 0 -21 -30 -11 -51 14 -26 56 -25
70 2 9 16 8 26 -4 44 -24 36 -20 58 19 95 20 19 35 44 35 57 0 18 6 23 25 23
25 0 25 -1 25 -85 0 -47 -4 -85 -9 -85 -15 0 -21 -30 -11 -51 22 -41 91 -8 74
35 -3 9 -10 16 -15 16 -5 0 -9 38 -9 85 0 84 0 85 25 85 19 0 25 -5 25 -23 0
-13 15 -38 35 -57 39 -37 43 -59 19 -95 -20 -31 -4 -65 31 -65 34 0 52 35 31
59 -9 10 -16 28 -16 41 0 13 -17 42 -40 66 -51 56 -52 74 -2 74 33 0 45 -8
100 -63 64 -64 73 -85 47 -107 -18 -15 -19 -42 -3 -58 17 -17 43 -15 59 4 11
14 10 21 -4 46 -9 16 -17 39 -17 51 0 13 -23 45 -57 79 -31 32 -55 59 -52 61
2 1 23 15 47 31 47 30 92 107 92 160 0 155 -165 261 -306 197z m186 -32 c59
-34 85 -81 85 -159 0 -57 -4 -72 -28 -103 -24 -32 -73 -67 -92 -67 -11 0 -4
76 10 94 19 25 2 58 -28 54 -16 -2 -23 -11 -25 -30 -2 -16 1 -28 7 -28 6 0 11
-21 11 -50 l0 -50 -35 0 c-24 0 -35 5 -35 15 0 8 4 15 9 15 13 0 21 27 15 45
-8 20 -53 19 -61 -1 -3 -9 -1 -25 5 -35 18 -28 14 -39 -13 -39 -25 0 -25 1
-25 85 0 49 5 93 12 104 9 15 9 23 -1 35 -8 9 -19 16 -26 16 -7 0 -18 -7 -26
-16 -10 -12 -10 -20 -1 -35 7 -11 12 -55 12 -104 0 -84 0 -85 -25 -85 -27 0
-31 11 -13 39 6 10 8 26 5 35 -8 20 -53 21 -61 1 -6 -18 2 -45 15 -45 5 0 9
-7 9 -15 0 -10 -11 -15 -35 -15 l-35 0 0 50 c0 29 5 50 11 50 6 0 9 12 7 28
-2 19 -9 28 -25 30 -30 4 -47 -29 -28 -54 8 -11 15 -38 15 -61 0 -41 -1 -43
-31 -43 -48 0 -99 56 -99 108 0 47 29 88 76 108 18 8 39 26 46 41 22 46 75 74
133 71 28 -1 61 4 74 11 64 35 128 35 191 0z m-130 -279 c0 -5 -2 -10 -4 -10
-3 0 -8 5 -11 10 -3 6 -1 10 4 10 6 0 11 -4 11 -10z m-370 -290 c0 -5 -4 -10
-10 -10 -5 0 -10 5 -10 10 0 6 5 10 10 10 6 0 10 -4 10 -10z m150 0 c0 -5 -7
-10 -15 -10 -8 0 -15 5 -15 10 0 6 7 10 15 10 8 0 15 -4 15 -10z m150 0 c0 -5
-7 -10 -15 -10 -8 0 -15 5 -15 10 0 6 7 10 15 10 8 0 15 -4 15 -10z m150 0 c0
-5 -7 -10 -15 -10 -8 0 -15 5 -15 10 0 6 7 10 15 10 8 0 15 -4 15 -10z m140 0
c0 -5 -4 -10 -10 -10 -5 0 -10 5 -10 10 0 6 5 10 10 10 6 0 10 -4 10 -10z"/>
<path d="M3838 2914 c-12 -11 1 -24 25 -24 12 0 37 -9 55 -20 35 -22 52 -25
52 -11 0 24 -115 72 -132 55z"/>
<path d="M3970 2830 c0 -5 5 -10 10 -10 6 0 10 5 10 10 0 6 -4 10 -10 10 -5 0
-10 -4 -10 -10z"/>
<path d="M4897 1449 c7 -7 15 -10 18 -7 3 3 -2 9 -12 12 -14 6 -15 5 -6 -5z"/>
<path d="M4806 1163 c-6 -14 -5 -15 5 -6 7 7 10 15 7 18 -3 3 -9 -2 -12 -12z"/>
</g>
</svg>
